HIERARCHY
ROOT joint_Root
{
	OFFSET 0.0 0.0 0.0
	CHANNELS 6 Xposition Yposition Zposition Zrotation Xrotation Yrotation 
	JOINT Hips
	{
		OFFSET 4.5925 91.4895 -427.239
		CHANNELS 6 Xposition Yposition Zposition Zrotation Xrotation Yrotation 
		JOINT Spine
		{
			OFFSET 15.7357 0.0 0.0
			CHANNELS 6 Xposition Yposition Zposition Zrotation Xrotation Yrotation 
			JOINT Chest
			{
				OFFSET 8.98455 -0.406207 0.0
				CHANNELS 6 Xposition Yposition Zposition Zrotation Xrotation Yrotation 
				JOINT Neck
				{
					OFFSET 16.3773 0.0 0.0
					CHANNELS 6 Xposition Yposition Zposition Zrotation Xrotation Yrotation 
					JOINT Head
					{
						OFFSET 6.45672 0.0 0.0
						CHANNELS 6 Xposition Yposition Zposition Zrotation Xrotation Yrotation 
						End Site
						{
							OFFSET 0.0 0.0 0.0
						}
					}
				}
				JOINT Shoulder_L
				{
					OFFSET 12.9942 -0.242716 4.98039
					CHANNELS 6 Xposition Yposition Zposition Zrotation Xrotation Yrotation 
					JOINT UpperArm_L
					{
						OFFSET 5.34809 0.0 0.0
						CHANNELS 6 Xposition Yposition Zposition Zrotation Xrotation Yrotation 
						JOINT LowerArm_L
						{
							OFFSET 24.3286 1.87007e-05 0.0
							CHANNELS 6 Xposition Yposition Zposition Zrotation Xrotation Yrotation 
							JOINT Hand_L
							{
								OFFSET 22.2916 0.0 0.0
								CHANNELS 6 Xposition Yposition Zposition Zrotation Xrotation Yrotation 
								End Site
								{
									OFFSET 0.0 0.0 0.0
								}
							}
						}
					}
				}
				JOINT Shoulder_R
				{
					OFFSET 12.9945 -0.242716 -4.98039
					CHANNELS 6 Xposition Yposition Zposition Zrotation Xrotation Yrotation 
					JOINT UpperArm_R
					{
						OFFSET -5.34813 0.0 0.0
						CHANNELS 6 Xposition Yposition Zposition Zrotation Xrotation Yrotation 
						JOINT LowerArm_R
						{
							OFFSET -24.3289 0.000322201 0.0
							CHANNELS 6 Xposition Yposition Zposition Zrotation Xrotation Yrotation 
							JOINT Hand_R
							{
								OFFSET -22.2915 -0.000108084 0.0
								CHANNELS 6 Xposition Yposition Zposition Zrotation Xrotation Yrotation 
								End Site
								{
									OFFSET 0.0 0.0 0.0
								}
							}
						}
					}
				}
			}
		}
		JOINT UpperLeg_L
		{
			OFFSET -2.19248 -6.46944 0.0
			CHANNELS 6 Xposition Yposition Zposition Zrotation Xrotation Yrotation 
			JOINT LowerLeg_L
			{
				OFFSET 39.0811 0.0 -1.23785e-05
				CHANNELS 6 Xposition Yposition Zposition Zrotation Xrotation Yrotation 
				JOINT Foot_L
				{
					OFFSET 40.9854 0.0 -1.26872e-05
					CHANNELS 6 Xposition Yposition Zposition Zrotation Xrotation Yrotation 
					JOINT Toes_L
					{
						OFFSET 11.7543 0.0 0.0
						CHANNELS 6 Xposition Yposition Zposition Zrotation Xrotation Yrotation 
						End Site
						{
							OFFSET 0.0 0.0 0.0
						}
					}
				}
			}
		}
		JOINT UpperLeg_R
		{
			OFFSET -2.19251 6.46944 0.0
			CHANNELS 6 Xposition Yposition Zposition Zrotation Xrotation Yrotation 
			JOINT LowerLeg_R
			{
				OFFSET -39.0811 -0.00228153 -0.0401928
				CHANNELS 6 Xposition Yposition Zposition Zrotation Xrotation Yrotation 
				JOINT Foot_R
				{
					OFFSET -40.9854 0.0 0.0
					CHANNELS 6 Xposition Yposition Zposition Zrotation Xrotation Yrotation 
					JOINT Toes_R
					{
						OFFSET -11.7543 0.0 0.0
						CHANNELS 6 Xposition Yposition Zposition Zrotation Xrotation Yrotation 
						End Site
						{
							OFFSET 0.0 0.0 0.0
						}
					}
				}
			}
		}
	}
}
MOTION
Frames:	9
Frame Time:	0.0333333
0.000000 0.000000 0.000000 0.000000 0.000000 -0.000000 -1.250750 90.344400 3.073340 89.990200 -4.692800 9.573300 15.735700 0.000005 -0.000001 72.979300 84.463900 -70.827900 8.984550 -0.406207 -0.000000 2.891610 -3.329360 4.383350 16.377300 -0.000001 -0.000001 17.423600 -10.473700 6.487530 6.456720 -0.000001 -0.000000 11.334200 -13.320400 16.610400 12.994200 -0.242716 4.980390 -88.435600 -4.206530 -69.578600 5.348090 -0.000007 -0.000001 -57.577800 -47.304100 -78.747400 24.328600 0.000019 0.000005 19.179600 10.208400 -63.000400 22.291600 -0.000001 0.000005 16.303700 5.297570 0.140291 12.994500 -0.242716 -4.980390 88.100300 10.442000 -79.629200 -5.348130 -0.000001 -0.000004 -60.201900 31.336200 -8.753660 -24.328900 0.000322 -0.000009 1.457110 4.727770 -17.162800 -22.291500 -0.000108 -0.000004 11.903600 5.389200 -2.589750 -2.192480 -6.469440 -0.000000 -174.671000 -12.840900 3.455850 39.081100 -0.000007 -0.000012 -0.209383 0.363441 29.947100 40.985400 -0.000006 -0.000013 0.169488 5.498350 -73.470600 11.754300 -0.000000 0.000003 -0.000160 -0.001537 -16.635900 -2.192510 6.469440 -0.000001 172.973000 17.960500 -175.697000 -39.081100 -0.002282 -0.040193 -0.252345 0.448557 29.680700 -40.985400 0.000008 0.000006 3.038320 13.696200 -74.005000 -11.754300 -0.000006 -0.000006 -0.001232 -0.018653 -17.331600
0.000000 0.000000 0.000000 0.000000 0.000000 -0.000000 -1.239010 90.312600 3.193510 89.985500 -4.622700 9.715230 15.735700 0.000005 -0.000001 73.223000 84.384700 -71.101600 8.984550 -0.406207 -0.000000 3.056050 -3.325490 4.327960 16.377300 -0.000001 -0.000001 18.051700 -10.491500 6.399250 6.456720 -0.000001 -0.000000 11.654400 -13.281300 16.501200 12.994200 -0.242716 4.980390 -88.443800 -4.167760 -69.504100 5.348090 -0.000007 -0.000001 -57.310800 -47.150100 -78.514500 24.328600 0.000019 0.000005 19.130900 10.098000 -63.185700 22.291600 -0.000001 0.000005 16.366500 5.294400 0.228739 12.994500 -0.242716 -4.980390 88.048300 10.580500 -79.486600 -5.348130 -0.000001 -0.000004 -60.020400 31.402600 -8.865260 -24.328900 0.000322 -0.000009 1.470450 4.751060 -17.231000 -22.291500 -0.000108 -0.000004 11.965200 5.389970 -2.614290 -2.192480 -6.469440 -0.000000 -174.645000 -12.759600 3.645110 39.081100 -0.000007 -0.000012 -0.208956 0.361574 30.024300 40.985400 -0.000006 -0.000013 0.173399 5.485280 -73.597300 11.754300 -0.000000 0.000003 -0.000164 -0.001566 -16.637000 -2.192510 6.469440 -0.000001 172.876000 17.976600 -175.462000 -39.081100 -0.002282 -0.040193 -0.253462 0.449624 29.729600 -40.985400 0.000008 0.000006 3.015310 13.683800 -74.122500 -11.754300 -0.000006 -0.000006 -0.001335 -0.020051 -17.388500
0.000000 0.000000 0.000000 0.000000 0.000000 -0.000000 -1.236630 90.289200 3.292260 89.967200 -4.521020 9.782520 15.735700 0.000005 -0.000001 73.101900 84.308100 -70.993700 8.984550 -0.406207 -0.000000 3.196980 -3.389390 4.307440 16.377300 -0.000001 -0.000001 18.668700 -10.505200 6.380990 6.456720 -0.000001 -0.000000 11.956000 -13.174600 16.238900 12.994200 -0.242716 4.980390 -88.484800 -4.034810 -69.396900 5.348090 -0.000007 -0.000001 -56.947200 -47.033200 -78.238300 24.328600 0.000019 0.000005 19.022800 9.986480 -63.298300 22.291600 -0.000001 0.000005 16.362400 5.297130 0.152640 12.994500 -0.242716 -4.980390 87.981900 10.800600 -79.350400 -5.348130 -0.000001 -0.000004 -59.774300 31.376600 -8.992010 -24.328900 0.000322 -0.000009 1.409320 4.537290 -17.287500 -22.291500 -0.000108 -0.000004 11.917900 5.393410 -2.724360 -2.192480 -6.469440 -0.000000 -174.612000 -12.671000 3.744280 39.081100 -0.000007 -0.000012 -0.211587 0.365212 30.086400 40.985400 -0.000006 -0.000013 0.185807 5.522620 -73.695600 11.754300 -0.000000 0.000003 -0.000167 -0.001594 -16.638000 -2.192510 6.469440 -0.000001 172.832000 18.048800 -175.304000 -39.081100 -0.002282 -0.040193 -0.249984 0.442728 29.774500 -40.985400 0.000008 0.000006 3.184410 13.599800 -74.280100 -11.754300 -0.000006 -0.000006 -0.001282 -0.019338 -17.359500
0.000000 0.000000 0.000000 0.000000 0.000000 -0.000000 -1.216360 90.262900 3.365980 89.958600 -4.430670 9.861780 15.735700 0.000005 -0.000001 73.127800 84.219300 -71.035000 8.984550 -0.406207 -0.000000 3.369070 -3.431970 4.283000 16.377300 -0.000001 -0.000001 19.254500 -10.551800 6.345140 6.456720 -0.000001 -0.000000 12.280000 -13.120500 16.074200 12.994200 -0.242716 4.980390 -88.504000 -3.967300 -69.320000 5.348090 -0.000007 -0.000001 -56.783600 -46.927100 -78.027200 24.328600 0.000019 0.000005 19.118500 9.975220 -63.448000 22.291600 -0.000001 0.000005 16.282500 5.296750 0.163208 12.994500 -0.242716 -4.980390 87.900000 11.053200 -79.172300 -5.348130 -0.000001 -0.000004 -59.531600 31.406000 -9.082220 -24.328900 0.000322 -0.000009 1.449180 4.654290 -17.327900 -22.291500 -0.000108 -0.000004 11.939600 5.391890 -2.675690 -2.192480 -6.469440 -0.000000 -174.592000 -12.624700 3.826540 39.081100 -0.000007 -0.000012 -0.213692 0.367479 30.178700 40.985400 -0.000006 -0.000013 0.215034 5.564550 -73.795300 11.754300 -0.000000 0.000003 -0.000173 -0.001640 -16.639700 -2.192510 6.469440 -0.000001 172.786000 18.096000 -175.193000 -39.081100 -0.002282 -0.040193 -0.243765 0.430376 29.859400 -40.985400 0.000008 0.000006 3.261070 13.542900 -74.400900 -11.754300 -0.000006 -0.000006 -0.001303 -0.019625 -17.371200
0.000000 0.000000 0.000000 0.000000 0.000000 -0.000000 -1.193140 90.248500 3.419790 89.960800 -4.362220 9.902180 15.735700 0.000005 -0.000001 73.134900 84.135200 -71.055400 8.984550 -0.406207 -0.000000 3.531070 -3.475620 4.262610 16.377300 -0.000001 -0.000001 19.841600 -10.603100 6.311380 6.456720 -0.000001 -0.000000 12.539500 -13.076100 15.932000 12.994200 -0.242716 4.980390 -88.532300 -3.876350 -69.243400 5.348090 -0.000007 -0.000001 -56.643300 -46.843300 -77.865200 24.328600 0.000019 0.000005 18.990700 9.906500 -63.439200 22.291600 -0.000001 0.000005 16.309300 5.297350 0.146773 12.994500 -0.242716 -4.980390 87.838700 11.205900 -79.009900 -5.348130 -0.000001 -0.000004 -59.473100 31.408300 -9.108780 -24.328900 0.000322 -0.000009 1.426220 4.579850 -17.329900 -22.291500 -0.000108 -0.000004 11.855900 5.391410 -2.660240 -2.192480 -6.469440 -0.000000 -174.607000 -12.584900 3.878100 39.081100 -0.000007 -0.000012 -0.211100 0.362433 30.219000 40.985400 -0.000006 -0.000013 0.231156 5.558360 -73.852800 11.754300 -0.000000 0.000003 -0.000173 -0.001635 -16.639500 -2.192510 6.469440 -0.000001 172.805000 18.043000 -175.151000 -39.081100 -0.002282 -0.040193 -0.229438 0.404085 29.940900 -40.985400 0.000008 0.000006 3.497650 13.337500 -74.547100 -11.754300 -0.000006 -0.000006 -0.001303 -0.019627 -17.371300
0.000000 0.000000 0.000000 0.000000 0.000000 -0.000000 -1.157840 90.236500 3.442750 89.960700 -4.341440 9.930850 15.735700 0.000005 -0.000001 73.158400 84.060400 -71.091500 8.984550 -0.406207 -0.000000 3.676160 -3.510990 4.243050 16.377300 -0.000001 -0.000001 20.412500 -10.635200 6.268370 6.456720 -0.000001 -0.000000 12.878200 -12.981300 15.793400 12.994200 -0.242716 4.980390 -88.548000 -3.828360 -69.210700 5.348090 -0.000007 -0.000001 -56.525700 -46.786100 -77.661200 24.328600 0.000019 0.000005 19.047500 9.971000 -63.365600 22.291600 -0.000001 0.000005 16.231900 5.298650 0.109984 12.994500 -0.242716 -4.980390 87.794500 11.290400 -78.871700 -5.348130 -0.000001 -0.000004 -59.567900 31.459100 -9.048860 -24.328900 0.000322 -0.000009 1.412320 4.538730 -17.316900 -22.291500 -0.000108 -0.000004 11.988100 5.391800 -2.672520 -2.192480 -6.469440 -0.000000 -174.631000 -12.570400 3.898150 39.081100 -0.000007 -0.000012 -0.210762 0.361130 30.268900 40.985400 -0.000006 -0.000013 0.263100 5.552690 -73.901400 11.754300 -0.000000 0.000003 -0.000174 -0.001644 -16.639800 -2.192510 6.469440 -0.000001 172.854000 17.929400 -175.165000 -39.081100 -0.002282 -0.040193 -0.210541 0.369782 30.040800 -40.985400 0.000008 0.000006 3.747970 13.108200 -74.679700 -11.754300 -0.000006 -0.000006 -0.001266 -0.019115 -17.350400
0.000000 0.000000 0.000000 0.000000 0.000000 -0.000000 -1.114860 90.224500 3.454510 89.951800 -4.343660 9.939230 15.735700 0.000005 -0.000001 73.091000 83.986200 -71.031700 8.984550 -0.406207 -0.000000 3.815180 -3.564460 4.233950 16.377300 -0.000001 -0.000001 21.015200 -10.681600 6.197110 6.456720 -0.000001 -0.000000 13.227600 -12.847300 15.629200 12.994200 -0.242716 4.980390 -88.551900 -3.809220 -69.167500 5.348090 -0.000007 -0.000001 -56.524500 -46.730400 -77.513700 24.328600 0.000019 0.000005 18.981400 9.996270 -63.221900 22.291600 -0.000001 0.000005 16.212000 5.299180 0.095321 12.994500 -0.242716 -4.980390 87.772900 11.303000 -78.776900 -5.348130 -0.000001 -0.000004 -59.766100 31.597200 -8.972570 -24.328900 0.000322 -0.000009 1.400630 4.516320 -17.262200 -22.291500 -0.000108 -0.000004 11.808400 5.390720 -2.638180 -2.192480 -6.469440 -0.000000 -174.661000 -12.528300 3.868820 39.081100 -0.000007 -0.000012 -0.213101 0.364080 30.341400 40.985400 -0.000006 -0.000013 0.286490 5.513210 -73.945100 11.754300 -0.000000 0.000003 -0.000174 -0.001650 -16.640000 -2.192510 6.469440 -0.000001 172.892000 17.861400 -175.218000 -39.081100 -0.002282 -0.040193 -0.196237 0.343629 30.143100 -40.985400 0.000008 0.000006 3.927190 12.956600 -74.771700 -11.754300 -0.000006 -0.000006 -0.001273 -0.019215 -17.354500
0.000000 0.000000 0.000000 0.000000 0.000000 -0.000000 -1.061350 90.213700 3.468040 89.970200 -4.370550 10.050400 15.735700 0.000005 -0.000001 73.065100 83.889000 -71.017000 8.984550 -0.406207 -0.000000 4.000740 -3.622200 4.219410 16.377300 -0.000001 -0.000001 21.689800 -10.659500 6.068660 6.456720 -0.000001 -0.000000 13.551300 -12.683800 15.420300 12.994200 -0.242716 4.980390 -88.566300 -3.762860 -69.124700 5.348090 -0.000007 -0.000001 -56.491400 -46.620300 -77.363000 24.328600 0.000019 0.000005 19.105400 10.121700 -63.099000 22.291600 -0.000001 0.000005 16.079300 5.298250 0.121432 12.994500 -0.242716 -4.980390 87.757000 11.303900 -78.700000 -5.348130 -0.000001 -0.000004 -59.960800 31.791600 -8.841820 -24.328900 0.000322 -0.000009 1.371580 4.420990 -17.267800 -22.291500 -0.000108 -0.000004 11.758100 5.388500 -2.567320 -2.192480 -6.469440 -0.000000 -174.710000 -12.503600 3.996120 39.081100 -0.000007 -0.000012 -0.209973 0.358449 30.361300 40.985400 -0.000006 -0.000013 0.320104 5.462350 -73.991000 11.754300 -0.000000 0.000003 -0.000181 -0.001704 -16.642000 -2.192510 6.469440 -0.000001 172.859000 17.759900 -175.154000 -39.081100 -0.002282 -0.040193 -0.182192 0.318112 30.247000 -40.985400 0.000008 0.000006 4.182630 12.794200 -74.897500 -11.754300 -0.000006 -0.000006 -0.001245 -0.018832 -17.338900
0.000000 0.000000 0.000000 0.000000 0.000000 -0.000000 -1.009400 90.194100 3.471830 89.960700 -4.371370 10.141200 15.735700 0.000005 -0.000001 72.960200 83.797100 -70.913400 8.984550 -0.406207 -0.000000 4.171640 -3.693950 4.224750 16.377300 -0.000001 -0.000001 22.324800 -10.639100 5.951490 6.456720 -0.000001 -0.000000 13.946900 -12.494300 15.041400 12.994200 -0.242716 4.980390 -88.573800 -3.744510 -69.132200 5.348090 -0.000007 -0.000001 -56.473700 -46.494500 -77.178400 24.328600 0.000019 0.000005 19.074700 10.141500 -63.013900 22.291600 -0.000001 0.000005 16.064100 5.298170 0.123618 12.994500 -0.242716 -4.980390 87.719200 11.348600 -78.557700 -5.348130 -0.000001 -0.000004 -60.102800 31.903600 -8.720900 -24.328900 0.000322 -0.000009 1.400670 4.510240 -17.284600 -22.291500 -0.000108 -0.000004 11.771400 5.389140 -2.587860 -2.192480 -6.469440 -0.000000 -174.716000 -12.516900 4.025760 39.081100 -0.000007 -0.000012 -0.209347 0.355671 30.481300 40.985400 -0.000006 -0.000013 0.353558 5.430760 -74.053200 11.754300 -0.000000 0.000003 -0.000176 -0.001666 -16.640600 -2.192510 6.469440 -0.000001 172.832000 17.684200 -175.118000 -39.081100 -0.002282 -0.040193 -0.183279 0.318728 30.344500 -40.985400 0.000008 0.000006 4.129800 12.730700 -74.925400 -11.754300 -0.000006 -0.000006 -0.001271 -0.019186 -17.353300
